<svg width="512" height="512" viewBox="0 0 512 512" xmlns="http://www.w3.org/2000/svg">
  <!-- Background rounded square -->
  <rect x="32" y="32" width="448" height="448" rx="96" ry="96" fill="#FFF7E8"/>

  <!-- Beer foam -->
  <path
    d="M150 190
       C150 160 180 140 210 140
       C230 140 250 150 260 165
       C270 150 290 140 312 140
       C344 140 370 162 370 190
       L370 220
       L150 220 Z"
    fill="#F2C94C"/>

  <!-- Mug body (outer) -->
  <rect x="150" y="220" width="212" height="210" rx="32" ry="32" fill="#7A1025"/>

  <!-- Mug inner panel -->
  <rect x="180" y="240" width="152" height="170" rx="22" ry="22" fill="#AA3140"/>

  <!-- Inner “glass” highlights -->
  <rect x="205" y="260" width="26" height="120" rx="12" ry="12" fill="#F2C94C"/>
  <rect x="258" y="260" width="26" height="120" rx="12" ry="12" fill="#F2C94C"/>

  <!-- Mug handle -->
  <path
    d="M340 250
       L385 250
       C405 250 420 265 420 285
       L420 355
       C420 375 405 390 385 390
       L340 390
       Z
       M360 272
       L383 272
       C392 272 400 280 400 289
       L400 351
       C400 360 392 368 383 368
       L360 368 Z"
    fill="#7A1025"/>

  <!-- Tech/check square -->
  <rect x="310" y="155" width="90" height="90" rx="18" ry="18" fill="#AA3140"/>

  <!-- Check mark -->
  <path
    d="M340 200 L356 216 L378 186"
    fill="none"
    stroke="#F2C94C"
    stroke-width="12"
    stroke-linecap="round"
    stroke-linejoin="round"/>
</svg>
